<svg width="512" height="512" xmlns="http://www.w3.org/2000/svg">

 <g>
  <title>background</title>
  <rect fill="none" id="canvas_background" height="602" width="802" y="-1" x="-1"/>
 </g>
 <g>
  <title>Layer 1</title>
  <g id="svg_1">
   <path id="svg_2" fill="#0023c4" d="m177,40l-60.427,0c-8.255,-23.281 -30.498,-40 -56.573,-40c-67.649,1.281 -82.617,93.41 -20,116.573l0,59.427c1.056,26.536 38.953,26.516 40,0l0,-59.427c17.022,-6.036 30.537,-19.55 36.573,-36.573l60.427,0c26.536,-1.056 26.516,-38.953 0,-40zm-117,40c-11.028,0 -20,-8.972 -20,-20c1.099,-26.533 38.905,-26.525 40,0c0,11.028 -8.972,20 -20,20zm274,0l61.427,0c6.036,17.022 19.55,30.537 36.573,36.573l0,59.427c1.056,26.536 38.953,26.516 40,0l0,-59.427c23.281,-8.255 40,-30.498 40,-56.573c-1.281,-67.649 -93.41,-82.617 -116.573,-20l-61.427,0c-26.536,1.056 -26.516,38.953 0,40zm118,-40c11.028,0 20,8.972 20,20c-1.099,26.533 -38.905,26.525 -40,0c0,-11.028 8.972,-20 20,-20zm20,355.427l0,-61.427c-1.056,-26.536 -38.953,-26.516 -40,0l0,61.427c-17.022,6.036 -30.537,19.55 -36.573,36.573l-59.427,0c-26.536,1.056 -26.516,38.953 0,40l59.427,0c8.255,23.281 30.498,40 56.573,40c67.649,-1.281 82.617,-93.41 20,-116.573zm-20,76.573c-11.028,0 -20,-8.972 -20,-20c1.099,-26.533 38.906,-26.525 40,0c0,11.028 -8.972,20 -20,20zm-275,-40l-60.427,0c-6.036,-17.022 -19.55,-30.537 -36.573,-36.573l0,-60.427c-1.056,-26.536 -38.953,-26.516 -40,0l0,60.427c-23.281,8.255 -40,30.498 -40,56.573c1.281,67.649 93.41,82.617 116.573,20l60.427,0c26.536,-1.056 26.516,-38.953 0,-40zm-117,40c-11.028,0 -20,-8.972 -20,-20c1.099,-26.533 38.906,-26.525 40,0c0,11.028 -8.972,20 -20,20z"/>
   <path id="svg_3" fill="#ff5cf3" d="m85,258c0,13.807 -11.193,25 -25,25s-25,-11.193 -25,-25c0,-13.807 11.193,-25 25,-25s25,11.193 25,25zm170,-173c13.807,0 25,-11.193 25,-25c0,-13.807 -11.193,-25 -25,-25s-25,11.193 -25,25c0,13.807 11.193,25 25,25zm69,155l-45,0l0,-45c0,-11.046 -8.954,-20 -20,-20s-20,8.954 -20,20l0,45l-45,0c-11.046,0 -20,8.954 -20,20s8.954,20 20,20l45,0l0,45c0,11.046 8.954,20 20,20s20,-8.954 20,-20l0,-45l45,0c11.046,0 20,-8.954 20,-20s-8.954,-20 -20,-20zm128,-7c-13.807,0 -25,11.193 -25,25c0,13.807 11.193,25 25,25s25,-11.193 25,-25c0,-13.807 -11.193,-25 -25,-25zm-197,194c-13.807,0 -25,11.193 -25,25c0,13.807 11.193,25 25,25s25,-11.193 25,-25c0,-13.807 -11.193,-25 -25,-25z"/>
  </g>
 </g>
</svg>